<svg id="Слой_1" data-name="Слой 1" xmlns="http://www.w3.org/2000/svg" viewBox="0 0 52.5 84"><defs><style>.cls-1,.cls-5{fill:#fff;}.cls-2{fill:#0064dd;}.cls-3{fill:#0054dd;}.cls-4{fill:#0050dd;}.cls-5{stroke:#fff;stroke-miterlimit:10;}</style></defs><title>logo</title><rect class="cls-1" x="0.5" y="0.5" width="51.5" height="83" rx="4.5" ry="4.5"/><path class="cls-2" d="M66,8a4,4,0,0,1,4,4V86a4,4,0,0,1-4,4H23.5a4,4,0,0,1-4-4V12a4,4,0,0,1,4-4H66m0-1H23.5a5,5,0,0,0-5,5V86a5,5,0,0,0,5,5H66a5,5,0,0,0,5-5V12a5,5,0,0,0-5-5Z" transform="translate(-18.5 -7)"/><rect class="cls-2" x="4.95" y="7.67" width="42.6" height="62.51"/><path class="cls-3" d="M65.55,15.17V76.68H24V15.17h41.6m1-1H23V77.68h43.6V14.17Z" transform="translate(-18.5 -7)"/><path class="cls-2" d="M40,85.38a1,1,0,0,1-1-1,1,1,0,0,1,1-1.08h9.46a1,1,0,0,1,1,1,1,1,0,0,1-1,1.08Z" transform="translate(-18.5 -7)"/><path class="cls-4" d="M49.48,83.8a.51.51,0,0,1,.5.5v.08a.51.51,0,0,1-.5.5H40a.51.51,0,0,1-.5-.5V84.3a.51.51,0,0,1,.5-.5h9.46m0-1H40a1.5,1.5,0,0,0-1.5,1.5v.08a1.5,1.5,0,0,0,1.5,1.5h9.46a1.5,1.5,0,0,0,1.5-1.5V84.3a1.5,1.5,0,0,0-1.5-1.5Z" transform="translate(-18.5 -7)"/><polygon class="cls-5" points="32.48 7.17 23 12.5 31 16.5 28 21.5 34 24.5 37 19.5 39 26.5 35 33.5 40 35.5 43 31.5 48.05 31.63 48 7.5 32.48 7.17"/></svg>